<svg xmlns="http://www.w3.org/2000/svg" viewBox="0 0 64 64" role="img" aria-label="CKBHSE">
  <!-- Hexagonal brand badge approximating the official logo mark -->
  <polygon
    points="32,3 58,17 58,47 32,61 6,47 6,17"
    fill="#0B2447"
  />
  <polygon
    points="32,10 51,21 51,43 32,54 13,43 13,21"
    fill="#FFFFFF"
  />
  <!-- Left leaf panel -->
  <path
    d="M32 12 L32 52 L14 42 L14 22 Z"
    fill="#00A651"
  />
  <path
    d="M23 22c0 0 6 4 6 12s-6 12-6 12c0 0-5-4-5-12s5-12 5-12z"
    fill="#0B5C2E"
    opacity="0.85"
  />
  <!-- Right hard-hat panel -->
  <path
    d="M32 12 L50 22 L50 42 L32 52 Z"
    fill="#0B2447"
  />
  <path
    d="M36 28h10v2.5c0 3.2-2.6 5.5-5 5.5s-5-2.3-5-5.5V28zm1.2-2.2c.6-2.4 2.2-3.8 3.8-3.8s3.2 1.4 3.8 3.8"
    fill="#FFFFFF"
  />
  <!-- Checkmark -->
  <path
    d="M24 40l5 5 11-12"
    fill="none"
    stroke="#FFFFFF"
    stroke-width="3.5"
    stroke-linecap="round"
    stroke-linejoin="round"
  />
</svg>
